<?xml version="1.0" standalone="no"?>
<!DOCTYPE svg PUBLIC "-//W3C//DTD SVG 20010904//EN"
 "http://www.w3.org/TR/2001/REC-SVG-20010904/DTD/svg10.dtd">
<svg version="1.0" xmlns="http://www.w3.org/2000/svg"
 width="2000.000000pt" height="2000.000000pt" viewBox="0 0 2000.000000 2000.000000"
 preserveAspectRatio="xMidYMid meet">
<metadata>
Created by potrace 1.14, written by Peter Selinger 2001-2017
</metadata>
<g transform="translate(0.000000,2000.000000) scale(0.100000,-0.100000)"
fill="#000000" stroke="none">
<path d="M11085 19729 c-44 -11 -121 -40 -172 -64 -324 -157 -546 -485 -658
-970 -56 -244 -67 -282 -105 -360 -82 -166 -192 -230 -295 -172 -54 31 -88 84
-127 202 -18 55 -46 120 -63 145 -111 166 -369 205 -533 80 -70 -54 -76 -53
-87 11 -34 202 -124 348 -251 406 -106 48 -261 42 -364 -15 -143 -79 -228
-201 -264 -377 -17 -88 -36 -86 -116 11 -116 141 -226 201 -346 191 -143 -11
-244 -123 -295 -328 -20 -80 -23 -104 -36 -259 -13 -159 -5 -581 12 -665 2
-11 6 -40 9 -65 8 -78 26 -189 41 -263 8 -40 16 -83 19 -97 2 -14 16 -72 31
-130 15 -58 28 -112 30 -120 14 -62 103 -335 125 -385 5 -11 25 -62 45 -113
19 -52 42 -109 50 -128 8 -19 22 -51 31 -71 115 -263 309 -613 485 -875 66
-98 68 -92 -31 -102 -25 -2 -75 -15 -111 -28 -310 -113 -349 -327 -105 -560
98 -94 163 -121 525 -218 41 -11 75 -21 77 -22 9 -9 -630 -652 -686 -691 -136
-93 -588 -435 -664 -502 -11 -10 -214 -183 -251 -214 -103 -86 -222 -135 -393
-162 -78 -12 -309 -15 -360 -5 -15 3 -47 8 -72 11 -109 15 -208 47 -363 119
-93 43 -127 46 -127 14 0 -54 104 -206 193 -281 166 -140 331 -183 587 -151
138 18 272 48 355 80 l40 16 -35 -38 c-19 -20 -48 -51 -65 -69 -87 -92 -251
-268 -265 -285 -9 -10 -48 -54 -86 -97 -106 -117 -164 -183 -214 -242 -25 -29
-52 -61 -61 -70 -9 -9 -89 -106 -178 -216 -88 -110 -165 -205 -170 -212 -47
-56 -215 -291 -310 -433 -204 -304 -301 -476 -495 -872 -75 -153 -136 -280
-136 -282 0 -2 -24 -55 -54 -117 -30 -63 -86 -188 -126 -279 -39 -91 -75 -172
-80 -180 -40 -78 -268 -653 -363 -915 -196 -541 -379 -1174 -466 -1615 -12
-58 -23 -116 -26 -130 -7 -31 -43 -235 -49 -275 -14 -84 -26 -165 -31 -205 -3
-25 -7 -63 -10 -85 -3 -22 -7 -65 -10 -95 -3 -30 -8 -68 -10 -85 -4 -31 -13
-142 -20 -255 -6 -84 -6 -650 0 -715 2 -27 7 -77 9 -110 11 -124 18 -184 41
-327 20 -123 93 -430 105 -438 7 -5 4 -251 -4 -350 -6 -68 -8 -412 -2 -460 2
-19 7 -64 11 -100 4 -36 9 -74 11 -85 3 -11 9 -40 14 -65 15 -73 17 -82 40
-155 38 -122 94 -235 177 -364 70 -108 121 -207 128 -245 22 -132 0 -189 -127
-338 -44 -51 -92 -111 -107 -133 -14 -22 -28 -42 -31 -45 -12 -10 -59 -127
-70 -172 -18 -70 -7 -174 24 -241 60 -126 161 -176 371 -181 186 -5 318 41
417 147 22 23 84 110 138 192 177 267 221 327 315 419 162 160 447 289 870
395 300 75 759 177 880 195 22 4 47 8 55 11 8 2 31 6 50 9 19 3 46 8 60 10 32
6 136 24 175 30 114 19 481 65 570 71 33 3 76 7 95 10 152 20 689 32 910 20
217 -12 292 -18 440 -36 142 -17 195 -25 345 -49 66 -10 140 -21 165 -25 25
-3 52 -8 60 -10 16 -4 90 -12 225 -24 93 -8 284 -7 370 3 83 10 272 52 363 83
42 14 82 26 87 27 6 2 17 6 25 9 8 3 96 36 195 72 99 37 207 77 240 89 124 48
421 133 555 160 165 33 242 47 280 52 25 3 52 7 60 9 8 2 47 7 85 11 39 4 84
8 100 10 171 18 457 23 635 11 362 -24 655 -118 868 -276 71 -53 111 -92 338
-327 103 -107 184 -170 264 -208 91 -42 206 -46 305 -10 193 69 360 226 468
439 34 67 91 211 102 258 3 12 16 69 30 127 13 58 27 123 30 145 3 22 8 51 10
65 3 14 7 34 9 45 2 11 7 49 11 85 4 36 8 72 10 80 2 8 6 47 10 85 4 39 9 78
11 87 25 142 25 844 -1 1103 -2 22 -7 72 -10 110 -3 39 -8 86 -10 105 -2 19
-7 62 -10 95 -10 113 -48 402 -70 535 -7 47 -17 105 -20 130 -13 90 -85 461
-130 670 -40 184 -152 609 -221 840 -153 507 -382 1116 -584 1555 -23 50 -58
126 -78 170 -83 180 -347 695 -384 747 -10 14 -18 28 -18 31 0 8 -169 300
-231 399 -27 44 -49 81 -49 83 0 2 -21 37 -47 77 -27 41 -52 81 -58 89 -5 9
-19 29 -29 45 -11 16 -67 101 -125 189 -58 88 -107 162 -110 165 -4 3 -26 34
-50 70 -79 115 -325 446 -428 575 -177 221 -331 403 -494 585 -52 57 -112 125
-134 150 -22 25 -177 182 -345 350 -389 389 -727 690 -1120 994 -69 53 -132
102 -140 109 -49 40 -353 257 -458 327 -28 19 -50 40 -49 45 6 19 193 79 287
91 25 3 54 8 65 10 27 6 242 5 283 -1 135 -18 219 -35 352 -72 52 -14 120 -34
150 -45 95 -34 164 -60 197 -74 17 -8 34 -14 37 -14 3 0 144 -59 314 -131 346
-148 502 -209 700 -275 123 -40 292 -91 332 -99 8 -2 33 -8 55 -14 22 -6 43
-11 47 -11 4 -1 29 -7 55 -15 52 -15 373 -80 438 -89 22 -3 51 -8 65 -10 14
-2 46 -7 71 -10 25 -4 57 -8 70 -10 43 -7 145 -18 289 -31 138 -13 369 -13
430 0 152 34 257 95 298 175 19 37 23 56 19 106 -5 69 -32 119 -93 174 -102
92 -192 123 -369 126 -71 1 -157 -2 -190 -7 -33 -5 -75 -12 -94 -14 -19 -3
-43 -7 -55 -10 -12 -2 -37 -7 -56 -10 -19 -2 -46 -7 -60 -10 -197 -41 -440
-49 -605 -19 -301 54 -498 122 -1020 352 -329 145 -325 143 -360 157 -184 74
-414 151 -505 169 -14 3 -36 8 -50 11 -142 33 -407 43 -535 20 -38 -7 -71 -11
-73 -10 -1 1 32 15 74 30 227 83 358 202 407 370 32 113 7 216 -73 295 -71 72
-142 101 -260 106 -96 3 -161 -11 -254 -54 -58 -27 -219 -132 -241 -156 -5 -6
-21 -20 -35 -31 l-25 -20 20 25 c11 14 23 27 26 30 19 17 213 248 315 375 322
403 668 909 873 1278 123 222 351 670 351 690 0 3 15 38 34 79 170 365 323
781 362 981 21 108 26 139 32 187 9 74 9 344 0 400 -4 25 -10 61 -14 80 -3 19
-19 74 -35 122 -109 331 -363 585 -647 652 -90 21 -243 19 -337 -5z"/>
<path d="M10687 1824 c-1 -1 -54 -5 -117 -9 -63 -3 -128 -8 -145 -10 -75 -9
-139 -17 -164 -21 -112 -19 -211 -39 -296 -61 -55 -13 -107 -26 -115 -28 -25
-6 -433 -124 -465 -134 -28 -9 -176 -44 -235 -54 -82 -15 -107 -20 -125 -24
-116 -23 -536 -22 -675 1 -21 4 -68 10 -225 30 -11 2 -40 6 -65 10 -25 4 -56
9 -70 11 -14 2 -67 11 -119 20 -52 9 -110 18 -130 20 -34 4 -75 10 -131 20
-25 4 -75 11 -140 19 -140 17 -222 21 -415 21 -216 0 -309 -9 -455 -42 -36 -8
-72 -16 -80 -18 -41 -8 -243 -70 -300 -91 -194 -74 -329 -133 -695 -304 -49
-23 -130 -57 -180 -75 -49 -18 -166 -61 -260 -95 -337 -124 -511 -229 -606
-366 -80 -117 -93 -316 -25 -378 17 -14 32 -17 76 -13 67 6 155 50 277 137 87
62 279 213 298 234 6 6 31 28 57 49 26 21 53 43 60 50 95 91 448 292 663 377
222 89 417 137 642 158 114 11 379 3 425 -13 7 -2 31 -7 53 -10 33 -4 89 -15
205 -40 14 -3 46 -12 185 -50 28 -7 174 -55 325 -105 441 -146 621 -197 795
-225 283 -46 539 -31 762 44 71 24 238 94 353 149 399 188 593 235 925 227 83
-3 166 -7 185 -9 19 -3 58 -8 85 -12 41 -4 153 -27 350 -69 11 -3 101 -27 200
-55 238 -67 224 -63 355 -103 380 -117 679 -190 870 -212 88 -10 144 -17 163
-21 61 -11 309 -19 612 -19 318 0 454 4 850 22 297 15 905 8 1080 -11 31 -4
137 -17 170 -21 17 -3 55 -7 85 -11 62 -8 315 -63 405 -89 33 -9 67 -18 75
-20 32 -8 189 -65 260 -96 65 -27 175 -90 261 -149 50 -35 145 -78 194 -88
118 -25 234 46 276 171 47 140 -35 294 -223 419 -107 71 -172 101 -283 128
-81 20 -103 22 -240 15 -393 -18 -558 -12 -790 29 -502 89 -591 96 -1025 80
-259 -10 -715 -10 -840 -1 -101 7 -121 9 -200 22 -19 3 -53 8 -75 11 -174 25
-627 168 -849 268 -54 25 -367 147 -481 188 -197 71 -381 123 -540 154 -22 4
-42 8 -45 9 -3 0 -26 4 -51 8 -25 4 -57 10 -70 12 -67 11 -195 25 -289 31 -97
6 -338 12 -343 8z"/>
</g>
</svg>
